<svg xmlns="http://www.w3.org/2000/svg" width="1200" height="675" viewBox="0 0 1200 675" role="img" aria-labelledby="title desc"><title id="title">Institutional operations system</title><desc id="desc">Privacy-safe school operations diagram showing academic planning, staff deployment and timetable, daily execution, academic monitoring, meetings and parent touchpoints, events and admissions, policy/accountability, and review.</desc><defs><linearGradient id="bg" x1="0" y1="0" x2="1" y2="1"><stop offset="0" stop-color="#07090c"/><stop offset="1" stop-color="#0b1219"/></linearGradient><pattern id="grid" width="32" height="32" patternUnits="userSpaceOnUse"><path d="M32 0H0V32" fill="none" stroke="#1a2630" stroke-width="1" opacity=".4"/></pattern><marker id="a" markerWidth="8" markerHeight="8" refX="7" refY="4" orient="auto"><path d="M0 0L8 4L0 8Z" fill="#728392"/></marker></defs><rect width="1200" height="675" fill="url(#bg)"/><rect width="1200" height="675" fill="url(#grid)"/><text x="64" y="72" fill="#72b8ff" font-family="ui-monospace,monospace" font-size="15" letter-spacing="3">SOURCE-BACKED · INSTITUTIONAL OPERATIONS</text><text x="64" y="116" fill="#f2f5f7" font-family="Arial" font-size="34" font-weight="700">Institutional Operations System</text><text x="64" y="149" fill="#91a0ab" font-family="Arial" font-size="16">Leadership translated into deployment, daily cadence, monitoring, communication and review</text>
<g font-family="Arial"><g transform="translate(70 220)"><rect width="180" height="118" rx="14" fill="#0e1821" stroke="#72b8ff"/><text x="18" y="31" fill="#72b8ff" font-family="ui-monospace,monospace" font-size="11">01 · PLAN</text><text x="18" y="60" fill="#e1e8ed" font-size="13" font-weight="700">Academic + operational</text><text x="18" y="84" fill="#9facb5" font-size="11">calendar · exams · priorities</text><text x="18" y="102" fill="#9facb5" font-size="11">responsibilities · standards</text></g><path d="M250 279H300" stroke="#728392" stroke-width="2" marker-end="url(#a)"/><g transform="translate(310 220)"><rect width="180" height="118" rx="14" fill="#0e1821" stroke="#b896ff"/><text x="18" y="31" fill="#b896ff" font-family="ui-monospace,monospace" font-size="11">02 · DEPLOY</text><text x="18" y="60" fill="#e8e1f3" font-size="13" font-weight="700">Staff + timetable</text><text x="18" y="84" fill="#aaa0b8" font-size="11">teacher · subject · class</text><text x="18" y="102" fill="#aaa0b8" font-size="11">verify allocation / discrepancy</text></g><path d="M490 279H540" stroke="#728392" stroke-width="2" marker-end="url(#a)"/><g transform="translate(550 220)"><rect width="180" height="118" rx="14" fill="#0e1821" stroke="#68dfd0"/><text x="18" y="31" fill="#68dfd0" font-family="ui-monospace,monospace" font-size="11">03 · EXECUTE</text><text x="18" y="60" fill="#ddf1ee" font-size="13" font-weight="700">Daily school cadence</text><text x="18" y="84" fill="#96b6b1" font-size="11">classes · discipline · records</text><text x="18" y="102" fill="#96b6b1" font-size="11">assemblies · duties · exams</text></g><path d="M730 279H780" stroke="#728392" stroke-width="2" marker-end="url(#a)"/><g transform="translate(790 220)"><rect width="180" height="118" rx="14" fill="#0e1821" stroke="#ffbd66"/><text x="18" y="31" fill="#ffbd66" font-family="ui-monospace,monospace" font-size="11">04 · MONITOR</text><text x="18" y="60" fill="#f2e5d2" font-size="13" font-weight="700">Academic evidence</text><text x="18" y="84" fill="#b8a58d" font-size="11">teaching · syllabus · records</text><text x="18" y="102" fill="#b8a58d" font-size="11">performance tracking</text></g><path d="M880 338V394" stroke="#728392" stroke-width="2" marker-end="url(#a)"/><g transform="translate(790 404)"><rect width="180" height="118" rx="14" fill="#0e1821" stroke="#baff67"/><text x="18" y="31" fill="#baff67" font-family="ui-monospace,monospace" font-size="11">05 · REVIEW</text><text x="18" y="60" fill="#eaf5df" font-size="13" font-weight="700">Meetings + observation</text><text x="18" y="84" fill="#9fb68b" font-size="11">staff · PTM · training</text><text x="18" y="102" fill="#9fb68b" font-size="11">feedback · improvement</text></g><path d="M790 463H740" stroke="#728392" stroke-width="2" marker-end="url(#a)"/><g transform="translate(550 404)"><rect width="180" height="118" rx="14" fill="#0e1821" stroke="#72b8ff"/><text x="18" y="31" fill="#72b8ff" font-family="ui-monospace,monospace" font-size="11">06 · COORDINATE</text><text x="18" y="60" fill="#e1e8ed" font-size="13" font-weight="700">Events + admissions</text><text x="18" y="84" fill="#9facb5" font-size="11">parent communication</text><text x="18" y="102" fill="#9facb5" font-size="11">assemblies · institutional info</text></g><path d="M550 463H500" stroke="#728392" stroke-width="2" marker-end="url(#a)"/><g transform="translate(310 404)"><rect width="180" height="118" rx="14" fill="#0e1821" stroke="#93a5b7"/><text x="18" y="31" fill="#b5c0ca" font-family="ui-monospace,monospace" font-size="11">07 · GOVERN</text><text x="18" y="60" fill="#e1e8ed" font-size="13" font-weight="700">Policy + accountability</text><text x="18" y="84" fill="#9facb5" font-size="11">documentation · compliance</text><text x="18" y="102" fill="#9facb5" font-size="11">responsibility · escalation</text></g><path d="M310 463H260" stroke="#728392" stroke-width="2" marker-end="url(#a)"/><g transform="translate(70 404)"><rect width="180" height="118" rx="14" fill="#0e1821" stroke="#b896ff"/><text x="18" y="31" fill="#b896ff" font-family="ui-monospace,monospace" font-size="11">08 · ADJUST</text><text x="18" y="60" fill="#e8e1f3" font-size="13" font-weight="700">Next operating cycle</text><text x="18" y="84" fill="#aaa0b8" font-size="11">deployment · priorities</text><text x="18" y="102" fill="#aaa0b8" font-size="11">training · policy changes</text></g></g><path d="M160 404V370H160V338" fill="none" stroke="#72b8ff" stroke-width="1.5" stroke-dasharray="6 5" marker-end="url(#a)"/><text x="64" y="590" fill="#71808b" font-family="Arial" font-size="11">Source basis: school leadership role standards plus consolidated staff timetable assignments and verification workflow.</text><text x="64" y="624" fill="#71808b" font-family="ui-monospace,monospace" font-size="10">Privacy-safe derivative · no staff personal details or protected operational counts shown</text><text x="1136" y="624" text-anchor="end" fill="#72b8ff" font-family="ui-monospace,monospace" font-size="10">PRAGALBH.IN / OPERATIONS EVIDENCE</text></svg>